# xmcd CD database file
#
# Track frame offsets:
#	150
#	12496
#	22393
#	33438
#	43403
#	51835
#	63145
#	75058
#	88730
#	100473
#	110478
#	120780
#	131490
#	143995
#	155161
#	167495
#	175072
#	185202
#	197159
#	207177
#	216656
#	225132
#	235859
#	244708
#	254320
#
# Disc length: 3533 seconds
#
# Revision: 3
# Processed by: cddbd v1.5.2PL0 Copyright (c) Steve Scherf et al.
# Submitted via: CDex 1.51
#
DISCID=5e0dcb19
DTITLE=Johnny Cash - Home Of The Blues
DYEAR=2010
DGENRE=Country
TTITLE0=I Walk The Line
TTITLE1=Ballad Of A Teenage Queen
TTITLE2=Cry! Cry! Cry!
TTITLE3=Hey Porter
TTITLE4=I Forgot To Remember To Forget
TTITLE5=Big River
TTITLE6=Home of The Blues
TTITLE7=Don't Take Your Guns To Town
TTITLE8=So Doggone Lonesome
TTITLE9=Get Rythm
TTITLE10=There You Go
TTITLE11=Train Of Love
TTITLE12=Next In Line
TTITLE13=Don't Make Me Go
TTITLE14=Give My Love To Rose
TTITLE15=Come In Stranger
TTITLE16=The Ways Of A Woman In Love
TTITLE17=You're The Nearest Thing To Heaven
TTITLE18=All Over Again
TTITLE19=What Do I Care
TTITLE20=Are the Children In
TTITLE21=The Old Account
TTITLE22=Lead Me Gently Home
TTITLE23=It's Just About Time
TTITLE24=I Just Thought You'd Like To Know
EXTD=YEAR: 2010
EXTT0=
EXTT1=
EXTT2=
EXTT3=
EXTT4=
EXTT5=
EXTT6=
EXTT7=
EXTT8=
EXTT9=
EXTT10=
EXTT11=
EXTT12=
EXTT13=
EXTT14=
EXTT15=
EXTT16=
EXTT17=
EXTT18=
EXTT19=
EXTT20=
EXTT21=
EXTT22=
EXTT23=
EXTT24=
PLAYORDER=
